HIERARCHY
ROOT Hips
{
	OFFSET 0.000000 0.000000 0.000000
	CHANNELS 6 Xposition Yposition Zposition Zrotation Yrotation Xrotation 
	JOINT LHipJoint
	{
		OFFSET 0.000000 0.000000 0.000000
		CHANNELS 3 Zrotation Yrotation Xrotation
		JOINT LeftUpLeg
		{
			OFFSET 1.363060 -1.794630 0.839290
			CHANNELS 3 Zrotation Yrotation Xrotation
			JOINT LeftLeg
			{
				OFFSET 2.448110 -6.726130 0.000000
				CHANNELS 3 Zrotation Yrotation Xrotation
				JOINT LeftFoot
				{
					OFFSET 2.562200 -7.039590 0.000000
					CHANNELS 3 Zrotation Yrotation Xrotation
					JOINT LeftToeBase
					{
						OFFSET 0.157640 -0.433110 2.322550
						CHANNELS 3 Zrotation Yrotation Xrotation
						End Site
						{
							OFFSET 0.000000 0.000000 0.000000
						}
					}
				}
			}
		}
	}
	JOINT RHipJoint
	{
		OFFSET 0.000000 0.000000 0.000000
		CHANNELS 3 Zrotation Yrotation Xrotation
		JOINT RightUpLeg
		{
			OFFSET -1.305520 -1.794630 0.839290
			CHANNELS 3 Zrotation Yrotation Xrotation
			JOINT RightLeg
			{
				OFFSET -2.542530 -6.985550 0.000000
				CHANNELS 3 Zrotation Yrotation Xrotation
				JOINT RightFoot
				{
					OFFSET -2.568260 -7.056230 0.000000
					CHANNELS 3 Zrotation Yrotation Xrotation
					JOINT RightToeBase
					{
						OFFSET -0.164730 -0.452590 2.363150
						CHANNELS 3 Zrotation Yrotation Xrotation
						End Site
						{
							OFFSET 0.000000 0.000000 0.000000
						}
					}
				}
			}
		}
	}
}
MOTION
Frames: 34
Frame Time: 0.008333
-2.022003 16.719619 0.513627 16.585822 49.602250 25.263183 -9.944590 3.896772 -2.873779 -7.675827 18.790683 -16.853539 -0.228055 2.624784 48.101998 1.359432 0.141597 27.300510 -0.619100 0.000000 -75.543400 9.851212 -0.028890 3.492720 15.852547 4.892133 -27.090538 2.170497 1.823557 4.062173 -2.750418 -8.354776 -14.780697 -179.341600 0.000000 -11.438600
-1.900240 16.716262 0.613243 15.441533 48.215484 24.490852 -10.065363 3.738942 -2.819000 -7.210171 18.415862 -18.475397 -0.107380 2.725526 50.807005 1.482944 0.393144 28.264824 -0.544800 0.000000 -70.223100 9.654416 -0.135333 3.681556 16.348907 6.057917 -27.005002 2.308727 1.704285 5.176003 -2.521026 -7.375028 -14.551219 -179.419001 -0.000000 -13.302601
-1.783304 16.714449 0.713856 14.380531 46.770567 23.830970 -10.146754 3.573054 -2.747069 -6.850503 17.857599 -20.111501 0.010172 2.830499 53.334105 1.600244 1.245919 28.538644 -0.118900 -0.000000 -64.752401 9.477937 -0.221925 3.862508 16.813453 7.182368 -26.896657 2.439217 1.594679 6.183659 -2.288841 -6.368590 -14.347656 -179.486800 -0.000000 -15.126600
-1.671553 16.714097 0.816103 13.427902 45.279690 23.300105 -10.189067 3.402085 -2.653248 -6.597203 17.106899 -21.746063 0.130474 2.934305 55.637144 1.715285 2.642775 28.163604 0.613400 -0.000000 -59.530400 9.329382 -0.285890 4.034844 17.218676 8.261764 -26.737529 2.553165 1.499806 7.048352 -2.068477 -5.401390 -14.173927 -179.543700 0.000001 -16.891300
-1.565093 16.715177 0.920506 12.595765 43.752458 22.903485 -10.193793 3.227905 -2.532212 -6.440053 16.159316 -23.361484 0.253293 3.029385 57.668492 1.833586 4.474669 27.219737 1.556800 0.000000 -54.877400 9.213130 -0.326117 4.198621 17.543884 9.295842 -26.506011 2.645522 1.424034 7.742873 -1.869202 -4.517193 -14.031015 -179.590000 0.000000 -18.572600
-1.463774 16.717630 1.027355 11.885138 42.195791 22.636351 -10.163396 3.052011 -2.378966 -6.360213 15.017457 -24.937860 0.373695 3.107938 59.381068 1.960082 6.601276 25.813468 2.592400 -0.000000 -51.016200 9.130641 -0.343247 4.354080 17.776211 10.285129 -26.188742 2.714969 1.370220 8.252019 -1.694395 -3.733886 -13.917904 -179.627000 0.000001 -20.148500
-1.367240 16.721494 1.136842 11.288270 40.613252 22.486309 -10.101417 2.876257 -2.190534 -6.329643 13.696450 -26.457374 0.484439 3.164362 60.738260 2.095742 8.861813 24.039711 3.596500 0.000000 -47.853700 9.080777 -0.339654 4.501713 17.911527 11.230315 -25.780086 2.763358 1.339433 8.572016 -1.542074 -3.045124 -13.830657 -179.656399 0.000000 -21.607000
-1.274932 16.726746 1.248912 10.790540 39.004400 22.435335 -10.012225 2.702579 -1.965411 -6.317198 12.219994 -27.903258 0.578028 3.194829 61.710966 2.238583 11.101263 22.000967 4.464900 0.000000 -45.321600 9.060551 -0.319045 4.641743 17.952089 12.131067 -25.281779 2.794831 1.330748 8.710810 -1.405969 -2.423968 -13.762990 -179.680800 -0.000001 -22.936100
-1.186163 16.733437 1.363462 10.376344 37.367004 22.465714 -9.900169 2.532922 -1.703105 -6.293576 10.614642 -29.260186 0.648248 3.196820 62.276833 2.383782 13.185575 19.805968 5.127300 0.000000 -43.385800 9.066498 -0.285887 4.773370 17.904772 12.983199 -24.703175 2.814720 1.341470 8.686026 -1.276831 -1.828545 -13.705631 -179.703200 0.000000 -24.128099
-1.100251 16.741479 1.480182 10.025225 35.694467 22.555083 -9.771217 2.369500 -1.406895 -6.228967 8.922181 -30.522452 0.691273 3.171658 62.440106 2.521215 14.992043 17.515962 5.534901 0.000000 -41.771100 9.092925 -0.245761 4.897247 17.782818 13.786680 -24.056314 2.828974 1.367783 8.522258 -1.145148 -1.213953 -13.647849 -179.727000 0.000000 -25.176600
-1.016444 16.750866 1.598808 9.720279 33.980168 22.686673 -9.630215 2.213510 -1.079620 -6.102677 7.176735 -31.686281 0.705533 3.120068 62.206549 2.642533 16.447415 15.224866 5.688400 -0.000000 -40.601800 9.135205 -0.203662 5.012380 17.600090 14.536200 -23.357828 2.842981 1.405205 8.248283 -1.001730 -0.534979 -13.577401 -179.755300 -0.000000 -26.078100
-0.934152 16.761492 1.718932 9.445070 32.217422 22.843613 -9.482565 2.065961 -0.726889 -5.898965 5.418426 -32.755625 0.691602 3.045256 61.604012 2.737943 17.502247 12.974499 5.604500 0.000000 -39.701300 9.188137 -0.164605 5.118251 17.373188 15.226984 -22.623864 2.861302 1.449240 7.893467 -0.839910 0.243944 -13.482184 -179.791000 -0.000001 -26.832800
-0.852821 16.773208 1.840291 9.186754 30.400790 23.012946 -9.332706 1.926932 -0.354793 -5.610219 3.683330 -33.738950 0.651395 2.950505 60.667891 2.800862 18.146332 10.801487 5.324100 -0.000000 -38.967800 9.247738 -0.132749 5.213639 17.118148 15.851355 -21.869131 2.886866 1.495739 7.485747 -0.656318 1.144759 -13.350950 -179.835900 0.000000 -27.444800
-0.772142 16.785843 1.962551 8.936282 28.526934 23.184288 -9.184562 1.795777 0.030286 -5.235445 2.003848 -34.647369 0.587682 2.839220 59.440074 2.828779 18.404346 8.731538 4.900800 -0.000000 -38.285700 9.310650 -0.111271 5.297042 16.850519 16.400419 -21.104360 2.920980 1.541448 7.048349 -0.451367 2.173146 -13.174618 -179.890200 0.000001 -27.922200
-0.691932 16.799067 2.085439 8.688316 26.595740 23.347922 -9.040818 1.671225 0.421248 -4.780385 0.410152 -35.492580 0.503650 2.714686 57.966750 2.823574 18.329800 6.778349 4.391000 -0.000000 -37.510300 9.375231 -0.102414 5.365380 16.585502 16.859845 -20.334088 2.963517 1.583717 6.601606 -0.228769 3.320933 -12.949567 -179.952500 0.000000 -28.289700
-0.612214 16.812547 2.208791 8.442081 24.611528 23.497307 -8.902863 1.551614 0.811874 -4.257192 -1.074775 -36.284094 0.403275 2.578956 56.287104 2.792341 18.004998 4.973099 3.855200 -0.000000 -36.589400 9.441235 -0.107144 5.414954 16.334640 17.213301 -19.558466 3.012799 1.621120 6.158820 0.004784 4.565300 -12.676895 179.980101 -0.000000 -28.587000
-0.533089 16.825973 2.332589 8.199822 22.582317 23.627499 -8.771048 1.435714 1.195978 -3.683033 -2.431045 -37.029774 0.291052 2.433695 54.434336 2.745189 17.524415 3.347974 3.345199 0.000000 -35.557200 9.509191 -0.125110 5.442580 16.105626 17.447743 -18.771846 3.065848 1.653611 5.723912 0.240388 5.869034 -12.360874 179.911801 0.000000 -28.862700
-0.454769 16.838919 2.456759 7.965164 20.520663 23.732562 -8.645265 1.322872 1.567290 -3.079706 -3.639463 -37.732878 0.171733 2.280147 52.436485 2.693071 16.980509 1.928475 2.896600 -0.000000 -34.410400 9.580162 -0.155876 5.444939 15.905077 17.549344 -17.964639 3.119588 1.681636 5.299114 0.468689 7.190045 -12.014612 179.846700 -0.000001 -29.185600
-0.377553 16.850907 2.581294 7.743241 18.442468 23.803586 -8.524957 1.213280 1.919508 -2.473148 -4.683418 -38.388794 0.050598 2.118920 50.310900 2.646938 16.461482 0.753683 2.536900 0.000000 -33.317700 9.656008 -0.198438 5.417061 15.738851 17.499668 -17.124221 3.171611 1.705992 4.886773 0.681597 8.490322 -11.661186 179.787000 0.000001 -29.677799
-0.301556 16.861600 2.706358 7.537608 16.366533 23.836675 -8.409913 1.108277 2.247066 -1.889808 -5.549408 -38.992966 -0.068959 1.951000 48.067628 2.614359 16.027881 -0.165729 2.273500 -0.000000 -32.304700 9.736777 -0.251146 5.358763 15.606390 17.299737 -16.239237 3.218908 1.728853 4.477567 0.871185 9.720190 -11.319308 179.734600 -0.000000 -30.416100
-0.226905 16.870639 2.832057 7.350859 14.312829 23.825689 -8.300311 1.009491 2.544993 -1.355881 -6.226855 -39.536282 -0.184851 1.777121 45.710115 2.599788 15.718329 -0.823751 2.107300 0.000000 -31.442600 9.822037 -0.312527 5.269631 15.507792 16.951214 -15.300106 3.259702 1.751922 4.066438 1.032186 10.838867 -11.011815 179.688800 0.000000 -31.471800
-0.153636 16.877602 2.958516 7.183662 12.301691 23.764204 -8.197059 0.918662 2.809302 -0.894680 -6.709310 -40.005606 -0.295945 1.597705 43.235533 2.604465 15.551904 -1.208480 2.038600 -0.000000 -30.926400 9.910762 -0.381096 5.148689 15.443944 16.454661 -14.300860 3.293798 1.776669 3.653154 1.162213 11.820278 -10.766736 179.646100 -0.000001 -32.972300
-0.081532 16.882323 3.085971 7.033432 10.352074 23.652957 -8.101727 0.836979 3.037979 -0.523036 -6.994968 -40.396744 -0.404952 1.413587 40.643066 2.625284 15.513517 -1.356864 2.053300 0.000000 -30.626999 9.999069 -0.455393 5.001417 15.411063 15.837180 -13.241166 3.320281 1.804655 3.229383 1.259750 12.629316 -10.592463 179.605400 0.000000 -34.844100
-0.010405 16.884512 3.214679 6.896701 8.481092 23.493469 -8.016316 0.764773 3.230496 -0.251624 -7.086421 -40.707032 -0.514770 1.225028 37.931051 2.656988 15.577016 -1.290318 2.142400 0.000000 -30.587300 10.083142 -0.534237 4.832048 15.407688 15.121661 -12.126251 3.339597 1.836361 2.795946 1.325929 13.250046 -10.496903 179.564800 -0.000000 -37.000700
0.060135 16.884078 3.344855 6.766984 6.703294 23.291067 -7.943126 0.701368 3.387985 -0.083998 -6.989631 -40.942071 -0.629732 1.032248 35.103355 2.692058 15.699464 -1.048345 2.291100 0.000000 -30.738700 10.158008 -0.616490 4.646739 15.432932 14.339113 -10.964975 3.352585 1.872010 2.353754 1.362938 13.673718 -10.478732 179.524500 0.000000 -39.302300
0.130400 16.880950 3.476812 6.637966 5.029961 23.055394 -7.884419 0.645129 3.513124 -0.018248 -6.712721 -41.116866 -0.754520 0.835228 32.169264 2.721577 15.828759 -0.671515 2.481900 0.000000 -31.014200 10.218458 -0.701259 4.453313 15.485884 13.526710 -9.770517 3.360020 1.911083 1.906646 1.373716 13.899176 -10.526791 179.487000 0.000000 -41.517700
0.200779 16.875143 3.610781 6.502964 3.469692 22.794041 -7.841887 0.593851 3.608066 -0.051614 -6.263058 -41.247839 -0.894065 0.633941 29.146244 2.735651 15.906586 -0.204302 2.692500 -0.000000 -31.334300 10.260531 -0.787393 4.256417 15.568760 12.708568 -8.554244 3.363832 1.953078 1.461482 1.362241 13.945457 -10.634257 179.453400 0.000000 -43.567900
0.271512 16.866744 3.747028 6.356520 2.027548 22.518588 -7.816666 0.544889 3.675993 -0.181952 -5.647124 -41.362405 -1.053019 0.428353 26.058336 2.724455 15.873907 0.314241 2.898800 0.000000 -31.630500 10.280762 -0.874305 4.062846 15.681253 11.913559 -7.331160 3.365206 1.996767 1.026704 1.332360 13.832225 -10.783040 179.426800 -0.000001 -45.309800
0.342793 16.855926 3.885835 6.195475 0.705244 22.237469 -7.808656 0.495805 3.718623 -0.413977 -4.868406 -41.487353 -1.236049 0.218590 22.935350 2.678462 15.673600 0.850876 3.074900 0.000000 -31.872800 10.277869 -0.961455 3.876994 15.821604 11.158747 -6.114074 3.365482 2.040492 0.613288 1.288480 13.591098 -10.955693 179.409400 0.000000 -46.670500
0.414639 16.842834 4.027365 6.019768 -0.499170 21.954593 -7.816221 0.444644 3.735266 -0.763434 -3.925434 -41.649195 -1.448337 0.005516 19.817277 2.588615 15.249609 1.373257 3.193400 0.000000 -32.057100 10.253005 -1.048553 3.700677 15.984606 10.448162 -4.911924 3.365881 2.081978 0.235033 1.235558 13.262573 -11.135207 179.401400 -0.000000 -47.635700
0.486993 16.827733 4.171887 5.833526 -1.590999 21.673112 -7.836523 0.390532 3.725977 -1.252575 -2.823366 -41.872130 -1.693342 -0.210151 16.741083 2.448629 14.564933 1.876067 3.237300 -0.000000 -32.321800 10.209075 -1.135847 3.535799 16.158486 9.781638 -3.736937 3.366835 2.118228 -0.090086 1.178365 12.885967 -11.305738 179.402300 0.000000 -48.227201
0.559707 16.810817 4.319525 5.644075 -2.578270 21.388809 -7.864321 0.333289 3.686802 -1.916050 -1.563823 -42.177151 -1.976039 -0.426112 13.764651 2.253094 13.577245 2.325407 3.182000 0.000000 -32.627601 10.151355 -1.223581 3.380510 16.326748 9.144637 -2.594048 3.368561 2.145872 -0.343505 1.122122 12.505872 -11.455876 179.409101 0.000000 -48.507800
0.632505 16.792411 4.470402 5.463934 -3.470826 21.097001 -7.892989 0.274803 3.618450 -2.780666 -0.178914 -42.572131 -2.295507 -0.641020 10.930891 2.003898 12.290152 2.726537 3.026300 -0.000001 -33.204800 10.086976 -1.312125 3.231959 16.464396 8.519201 -1.492406 3.370228 2.160703 -0.501482 1.071731 12.163721 -11.579166 179.418200 0.000001 -48.539800
0.705168 16.772626 4.624508 5.305579 -4.278333 20.784234 -7.914472 0.217248 3.514310 -3.884399 1.318198 -43.074500 -2.654469 -0.848605 8.337020 1.701364 10.672108 3.011380 2.748700 -0.000000 -33.832200 10.023024 -1.401943 3.084161 16.547420 7.876493 -0.430493 3.371306 2.159174 -0.545453 1.032002 11.901341 -11.674678 179.424800 0.000000 -48.419800
